<svg width="55" height="53" viewBox="0 0 55 53" fill="none" xmlns="http://www.w3.org/2000/svg">
<mask id="path-1-inside-1_61:41" fill="white">
<path d="M54.7369 26.5C54.7369 32.4053 52.7015 38.1407 48.9551 42.7924C45.2086 47.4441 39.9666 50.7445 34.0643 52.1678C28.162 53.591 21.939 53.0552 16.3867 50.6456C10.8344 48.2361 6.27231 44.0916 3.4273 38.8723C0.582283 33.653 -0.381968 27.6593 0.688175 21.8462C1.75832 16.033 4.80128 10.7349 9.33224 6.79587C13.8632 2.85686 19.6215 0.503628 25.6896 0.111103C31.7577 -0.281423 37.7866 1.30934 42.8156 4.62995L42.227 5.47042C37.3912 2.27742 31.5941 0.747789 25.7592 1.12523C19.9242 1.50267 14.3873 3.76547 10.0304 7.5531C5.6736 11.3407 2.74757 16.4353 1.71856 22.025C0.68954 27.6148 1.61673 33.3781 4.35241 38.3968C7.08809 43.4155 11.4749 47.4008 16.8138 49.7177C22.1527 52.0346 28.1366 52.5499 33.8121 51.1813C39.4875 49.8128 44.5281 46.6393 48.1305 42.1663C51.733 37.6933 53.6902 32.1783 53.6902 26.5H54.7369Z"/>
</mask>
<path d="M54.7369 26.5C54.7369 32.4053 52.7015 38.1407 48.9551 42.7924C45.2086 47.4441 39.9666 50.7445 34.0643 52.1678C28.162 53.591 21.939 53.0552 16.3867 50.6456C10.8344 48.2361 6.27231 44.0916 3.4273 38.8723C0.582283 33.653 -0.381968 27.6593 0.688175 21.8462C1.75832 16.033 4.80128 10.7349 9.33224 6.79587C13.8632 2.85686 19.6215 0.503628 25.6896 0.111103C31.7577 -0.281423 37.7866 1.30934 42.8156 4.62995L42.227 5.47042C37.3912 2.27742 31.5941 0.747789 25.7592 1.12523C19.9242 1.50267 14.3873 3.76547 10.0304 7.5531C5.6736 11.3407 2.74757 16.4353 1.71856 22.025C0.68954 27.6148 1.61673 33.3781 4.35241 38.3968C7.08809 43.4155 11.4749 47.4008 16.8138 49.7177C22.1527 52.0346 28.1366 52.5499 33.8121 51.1813C39.4875 49.8128 44.5281 46.6393 48.1305 42.1663C51.733 37.6933 53.6902 32.1783 53.6902 26.5H54.7369Z" stroke="white" stroke-width="2" mask="url(#path-1-inside-1_61:41)"/>
</svg>
